<mxfile host="Electron" modified="2023-09-24T15:15:57.376Z" agent="Mozilla/5.0 (Macintosh; Intel Mac OS X 10_15_7) AppleWebKit/537.36 (KHTML, like Gecko) draw.io/21.7.5 Chrome/114.0.5735.289 Electron/25.8.1 Safari/537.36" etag="fpamydXpuT2714GAyanJ" version="21.7.5" type="device">
  <diagram name="Page-1" id="M7Vg5fE4j3b48LLgKP5O">
    <mxGraphModel dx="1157" dy="820" grid="1" gridSize="10" guides="1" tooltips="1" connect="1" arrows="1" fold="1" page="1" pageScale="1" pageWidth="827" pageHeight="1169" math="0" shadow="0">
      <root>
        <mxCell id="0" />
        <mxCell id="1" parent="0" />
        <mxCell id="JIi0twduPG-gjOtKAIwr-1" value="&lt;span style=&quot;white-space: pre;&quot;&gt;&#x9;&lt;/span&gt;University API&lt;br&gt;&lt;br&gt;&lt;div style=&quot;text-align: justify;&quot;&gt;&lt;span style=&quot;font-weight: normal; background-color: initial;&quot;&gt;- city_name&lt;/span&gt;&lt;/div&gt;&lt;span style=&quot;font-weight: normal;&quot;&gt;&lt;div style=&quot;text-align: justify;&quot;&gt;&lt;span style=&quot;background-color: initial;&quot;&gt;- weather_measurements&lt;/span&gt;&lt;/div&gt;&lt;/span&gt;" style="shape=folder;fontStyle=1;spacingTop=10;tabWidth=40;tabHeight=14;tabPosition=left;html=1;whiteSpace=wrap;align=left;" vertex="1" parent="1">
          <mxGeometry x="68" y="40" width="170" height="130" as="geometry" />
        </mxCell>
        <mxCell id="JIi0twduPG-gjOtKAIwr-2" value="ORM SQLite" style="shape=cylinder3;whiteSpace=wrap;html=1;boundedLbl=1;backgroundOutline=1;size=15;" vertex="1" parent="1">
          <mxGeometry x="359" y="290" width="100" height="120" as="geometry" />
        </mxCell>
        <mxCell id="JIi0twduPG-gjOtKAIwr-3" value="&lt;b&gt;Preparing module&lt;/b&gt;&lt;br&gt;&lt;br&gt;&lt;div style=&quot;text-align: left; font-size: 10px;&quot;&gt;&lt;span style=&quot;background-color: initial;&quot;&gt;&lt;font style=&quot;font-size: 10px;&quot;&gt;- structure data to DataFrame&lt;/font&gt;&lt;/span&gt;&lt;/div&gt;&lt;div style=&quot;text-align: left; font-size: 10px;&quot;&gt;&lt;span style=&quot;background-color: initial;&quot;&gt;&lt;font style=&quot;font-size: 10px;&quot;&gt;- adding dates&lt;/font&gt;&lt;span style=&quot;font-size: 11px;&quot;&gt;&amp;nbsp;&lt;/span&gt;&lt;/span&gt;&lt;/div&gt;" style="shape=module;align=left;spacingLeft=20;align=center;verticalAlign=top;whiteSpace=wrap;html=1;" vertex="1" parent="1">
          <mxGeometry x="59" y="240" width="180" height="80" as="geometry" />
        </mxCell>
        <mxCell id="JIi0twduPG-gjOtKAIwr-4" value="" style="endArrow=none;html=1;rounded=0;entryX=-0.008;entryY=0.255;entryDx=0;entryDy=0;entryPerimeter=0;exitX=1;exitY=0.5;exitDx=0;exitDy=0;" edge="1" parent="1" source="JIi0twduPG-gjOtKAIwr-3" target="JIi0twduPG-gjOtKAIwr-2">
          <mxGeometry relative="1" as="geometry">
            <mxPoint x="179" y="390" as="sourcePoint" />
            <mxPoint x="339" y="390" as="targetPoint" />
          </mxGeometry>
        </mxCell>
        <mxCell id="JIi0twduPG-gjOtKAIwr-5" value="1" style="resizable=0;html=1;whiteSpace=wrap;align=right;verticalAlign=bottom;" connectable="0" vertex="1" parent="JIi0twduPG-gjOtKAIwr-4">
          <mxGeometry x="1" relative="1" as="geometry" />
        </mxCell>
        <mxCell id="JIi0twduPG-gjOtKAIwr-15" value="source_df" style="edgeLabel;html=1;align=center;verticalAlign=middle;resizable=0;points=[];" vertex="1" connectable="0" parent="JIi0twduPG-gjOtKAIwr-4">
          <mxGeometry x="-0.0786" y="1" relative="1" as="geometry">
            <mxPoint as="offset" />
          </mxGeometry>
        </mxCell>
        <mxCell id="JIi0twduPG-gjOtKAIwr-7" value="" style="endArrow=none;html=1;rounded=0;exitX=0.475;exitY=0.993;exitDx=0;exitDy=0;exitPerimeter=0;entryX=0.5;entryY=0;entryDx=0;entryDy=0;" edge="1" parent="1">
          <mxGeometry relative="1" as="geometry">
            <mxPoint x="89" y="170.00000000000003" as="sourcePoint" />
            <mxPoint x="89.25" y="240.91" as="targetPoint" />
          </mxGeometry>
        </mxCell>
        <mxCell id="JIi0twduPG-gjOtKAIwr-8" value="1" style="resizable=0;html=1;whiteSpace=wrap;align=right;verticalAlign=bottom;" connectable="0" vertex="1" parent="JIi0twduPG-gjOtKAIwr-7">
          <mxGeometry x="1" relative="1" as="geometry" />
        </mxCell>
        <mxCell id="JIi0twduPG-gjOtKAIwr-9" value="" style="endArrow=none;html=1;rounded=0;entryX=0;entryY=0;entryDx=0;entryDy=60;entryPerimeter=0;exitX=1;exitY=0.5;exitDx=0;exitDy=0;" edge="1" parent="1" source="JIi0twduPG-gjOtKAIwr-11" target="JIi0twduPG-gjOtKAIwr-2">
          <mxGeometry relative="1" as="geometry">
            <mxPoint x="279" y="440" as="sourcePoint" />
            <mxPoint x="439" y="440" as="targetPoint" />
          </mxGeometry>
        </mxCell>
        <mxCell id="JIi0twduPG-gjOtKAIwr-10" value="1" style="resizable=0;html=1;whiteSpace=wrap;align=right;verticalAlign=bottom;" connectable="0" vertex="1" parent="JIi0twduPG-gjOtKAIwr-9">
          <mxGeometry x="1" relative="1" as="geometry" />
        </mxCell>
        <mxCell id="JIi0twduPG-gjOtKAIwr-14" value="filtered_df" style="edgeLabel;html=1;align=center;verticalAlign=middle;resizable=0;points=[];" vertex="1" connectable="0" parent="JIi0twduPG-gjOtKAIwr-9">
          <mxGeometry x="0.1118" y="1" relative="1" as="geometry">
            <mxPoint as="offset" />
          </mxGeometry>
        </mxCell>
        <mxCell id="JIi0twduPG-gjOtKAIwr-11" value="&lt;b&gt;Filtering module&lt;/b&gt;&lt;br&gt;&lt;br&gt;&lt;div style=&quot;text-align: left; font-size: 10px;&quot;&gt;&lt;span style=&quot;background-color: initial;&quot;&gt;&lt;font style=&quot;font-size: 10px;&quot;&gt;- preprocessing&lt;/font&gt;&lt;/span&gt;&lt;span style=&quot;background-color: initial;&quot;&gt;, clean noise&lt;/span&gt;&lt;/div&gt;" style="shape=module;align=left;spacingLeft=20;align=center;verticalAlign=top;whiteSpace=wrap;html=1;" vertex="1" parent="1">
          <mxGeometry x="59" y="391" width="180" height="80" as="geometry" />
        </mxCell>
        <mxCell id="JIi0twduPG-gjOtKAIwr-12" value="" style="endArrow=none;html=1;rounded=0;exitX=0.475;exitY=0.993;exitDx=0;exitDy=0;exitPerimeter=0;entryX=0.5;entryY=0;entryDx=0;entryDy=0;" edge="1" parent="1">
          <mxGeometry relative="1" as="geometry">
            <mxPoint x="219" y="320" as="sourcePoint" />
            <mxPoint x="219" y="391" as="targetPoint" />
          </mxGeometry>
        </mxCell>
        <mxCell id="JIi0twduPG-gjOtKAIwr-13" value="1" style="resizable=0;html=1;whiteSpace=wrap;align=right;verticalAlign=bottom;" connectable="0" vertex="1" parent="JIi0twduPG-gjOtKAIwr-12">
          <mxGeometry x="1" relative="1" as="geometry" />
        </mxCell>
        <mxCell id="JIi0twduPG-gjOtKAIwr-16" value="&lt;b&gt;Forecasting module&lt;/b&gt;&lt;br&gt;&lt;br&gt;&lt;div style=&quot;text-align: left; font-size: 10px;&quot;&gt;&lt;span style=&quot;background-color: initial;&quot;&gt;&lt;font style=&quot;font-size: 10px;&quot;&gt;- XGBoost&lt;/font&gt;&lt;/span&gt;&lt;/div&gt;&lt;div style=&quot;text-align: left; font-size: 10px;&quot;&gt;&lt;span style=&quot;background-color: initial;&quot;&gt;&lt;font style=&quot;font-size: 10px;&quot;&gt;- Random Forrest&lt;/font&gt;&lt;/span&gt;&lt;/div&gt;" style="shape=module;align=left;spacingLeft=20;align=center;verticalAlign=top;whiteSpace=wrap;html=1;" vertex="1" parent="1">
          <mxGeometry x="59" y="542" width="180" height="80" as="geometry" />
        </mxCell>
        <mxCell id="JIi0twduPG-gjOtKAIwr-24" value="WEB application" style="shape=umlFrame;whiteSpace=wrap;html=1;pointerEvents=0;width=150;height=20;" vertex="1" parent="1">
          <mxGeometry x="579" y="270" width="190" height="180" as="geometry" />
        </mxCell>
        <mxCell id="JIi0twduPG-gjOtKAIwr-25" value="" style="endArrow=none;html=1;rounded=0;exitX=1;exitY=0;exitDx=0;exitDy=37.5;exitPerimeter=0;entryX=0;entryY=0.322;entryDx=0;entryDy=0;entryPerimeter=0;" edge="1" parent="1" source="JIi0twduPG-gjOtKAIwr-2" target="JIi0twduPG-gjOtKAIwr-24">
          <mxGeometry relative="1" as="geometry">
            <mxPoint x="399" y="501" as="sourcePoint" />
            <mxPoint x="579" y="330" as="targetPoint" />
          </mxGeometry>
        </mxCell>
        <mxCell id="JIi0twduPG-gjOtKAIwr-26" value="1" style="resizable=0;html=1;whiteSpace=wrap;align=right;verticalAlign=bottom;" connectable="0" vertex="1" parent="JIi0twduPG-gjOtKAIwr-25">
          <mxGeometry x="1" relative="1" as="geometry" />
        </mxCell>
        <mxCell id="JIi0twduPG-gjOtKAIwr-27" value="filtered_df" style="edgeLabel;html=1;align=center;verticalAlign=middle;resizable=0;points=[];" vertex="1" connectable="0" parent="JIi0twduPG-gjOtKAIwr-25">
          <mxGeometry x="0.1118" y="1" relative="1" as="geometry">
            <mxPoint x="-7" as="offset" />
          </mxGeometry>
        </mxCell>
        <mxCell id="JIi0twduPG-gjOtKAIwr-28" value="" style="endArrow=none;html=1;rounded=0;exitX=1;exitY=0;exitDx=0;exitDy=37.5;exitPerimeter=0;entryX=0;entryY=0.322;entryDx=0;entryDy=0;entryPerimeter=0;" edge="1" parent="1">
          <mxGeometry relative="1" as="geometry">
            <mxPoint x="459" y="359.63" as="sourcePoint" />
            <mxPoint x="579" y="359.63" as="targetPoint" />
          </mxGeometry>
        </mxCell>
        <mxCell id="JIi0twduPG-gjOtKAIwr-29" value="1" style="resizable=0;html=1;whiteSpace=wrap;align=right;verticalAlign=bottom;" connectable="0" vertex="1" parent="JIi0twduPG-gjOtKAIwr-28">
          <mxGeometry x="1" relative="1" as="geometry" />
        </mxCell>
        <mxCell id="JIi0twduPG-gjOtKAIwr-30" value="forecast_df" style="edgeLabel;html=1;align=center;verticalAlign=middle;resizable=0;points=[];" vertex="1" connectable="0" parent="JIi0twduPG-gjOtKAIwr-28">
          <mxGeometry x="0.1118" y="1" relative="1" as="geometry">
            <mxPoint x="-7" as="offset" />
          </mxGeometry>
        </mxCell>
        <mxCell id="JIi0twduPG-gjOtKAIwr-31" value="&lt;span style=&quot;background-color: initial;&quot;&gt;- choosing a city&lt;br&gt;- weather show interface&lt;/span&gt;&lt;br&gt;&lt;div style=&quot;&quot;&gt;- weather forecast interface&lt;/div&gt;&lt;div style=&quot;&quot;&gt;- weather statistics&lt;/div&gt;&lt;div style=&quot;&quot;&gt;- user settings&lt;/div&gt;" style="text;html=1;align=left;verticalAlign=middle;resizable=0;points=[];autosize=1;strokeColor=none;fillColor=none;" vertex="1" parent="1">
          <mxGeometry x="589" y="316" width="170" height="90" as="geometry" />
        </mxCell>
        <mxCell id="JIi0twduPG-gjOtKAIwr-33" value="" style="endArrow=none;html=1;rounded=0;exitX=0.475;exitY=0.993;exitDx=0;exitDy=0;exitPerimeter=0;entryX=0.5;entryY=0;entryDx=0;entryDy=0;" edge="1" parent="1">
          <mxGeometry relative="1" as="geometry">
            <mxPoint x="219" y="471" as="sourcePoint" />
            <mxPoint x="219" y="542" as="targetPoint" />
          </mxGeometry>
        </mxCell>
        <mxCell id="JIi0twduPG-gjOtKAIwr-34" value="1" style="resizable=0;html=1;whiteSpace=wrap;align=right;verticalAlign=bottom;" connectable="0" vertex="1" parent="JIi0twduPG-gjOtKAIwr-33">
          <mxGeometry x="1" relative="1" as="geometry" />
        </mxCell>
        <mxCell id="JIi0twduPG-gjOtKAIwr-35" value="" style="endArrow=none;html=1;rounded=0;entryX=0;entryY=0;entryDx=0;entryDy=82.49999999999999;entryPerimeter=0;exitX=1;exitY=0.5;exitDx=0;exitDy=0;" edge="1" parent="1" source="JIi0twduPG-gjOtKAIwr-16" target="JIi0twduPG-gjOtKAIwr-2">
          <mxGeometry relative="1" as="geometry">
            <mxPoint x="249" y="542" as="sourcePoint" />
            <mxPoint x="369" y="461" as="targetPoint" />
          </mxGeometry>
        </mxCell>
        <mxCell id="JIi0twduPG-gjOtKAIwr-36" value="1" style="resizable=0;html=1;whiteSpace=wrap;align=right;verticalAlign=bottom;" connectable="0" vertex="1" parent="JIi0twduPG-gjOtKAIwr-35">
          <mxGeometry x="1" relative="1" as="geometry" />
        </mxCell>
        <mxCell id="JIi0twduPG-gjOtKAIwr-37" value="forecast_df" style="edgeLabel;html=1;align=center;verticalAlign=middle;resizable=0;points=[];" vertex="1" connectable="0" parent="JIi0twduPG-gjOtKAIwr-35">
          <mxGeometry x="0.1118" y="1" relative="1" as="geometry">
            <mxPoint as="offset" />
          </mxGeometry>
        </mxCell>
      </root>
    </mxGraphModel>
  </diagram>
</mxfile>
